<?xml version="1.0" encoding="utf-8"?>
<!-- Generator: Adobe Illustrator 23.0.3, SVG Export Plug-In . SVG Version: 6.00 Build 0)  -->
<svg version="1.1" id="Layer_1" xmlns="http://www.w3.org/2000/svg" xmlns:xlink="http://www.w3.org/1999/xlink" x="0px" y="0px"
	 viewBox="0 0 1000 1000" style="enable-background:new 0 0 1000 1000;" xml:space="preserve">
<style type="text/css">
	.st0{fill:#FFFFFF;stroke:#000000;stroke-width:5;stroke-miterlimit:10;}
	.st1{fill:#414042;}
	.st2{display:none;fill:none;}
</style>
<g>
	<rect x="468.29" y="340.64" class="st0" width="64.41" height="316.95"/>
	<circle class="st0" cx="500.5" cy="294.03" r="32.2"/>
	<circle class="st0" cx="500.5" cy="704.21" r="32.2"/>
	<polygon points="532.7,340.64 532.7,360.1 468.29,411.06 468.29,379.51 517.42,340.64 	"/>
	<polygon points="532.7,392.21 532.7,423.76 468.29,474.72 468.29,443.17 	"/>
	<polygon class="st1" points="532.7,454.07 532.7,485.62 468.29,536.58 468.29,505.03 	"/>
	<polygon points="532.7,519.33 532.7,550.88 468.29,601.84 468.29,570.29 	"/>
	<polygon points="532.7,584.59 532.7,616.14 480.31,657.59 468.29,657.59 468.29,635.55 	"/>
	<g>
		<path d="M402.64,180c-2.69,4.22,0.04,9.29,14.64,28.61c15.64,20.7,28.51,44.69,10.51,64.45c-11.14,12.23-26.13,14.29-37.18,4.22
			c-11.44-10.42-10.83-24.71-3.87-32.36c5.89-6.47,11.88-5.97,15.39-2.76c3.64,3.32,4.43,7.26,2.5,9.38
			c-1.39,1.53-2.98,2.02-4.49,0.64c-1.38-1.26-1.28-2.89-0.46-4.29c0.82-1.4,0.98-2.34-0.4-3.6c-2.64-2.4-6.35-2.12-9.67,1.52
			c-5.14,5.65-5.2,16.57,5.86,26.64c10.68,9.73,21.48,7.73,29.62-1.21c9.96-10.94,8.48-23.7-1.2-39.83
			c-5.79-9.8-12.46-18.88-17.95-27.75c-0.52-0.69-1.6-1.02-1.5,0.14c0.23,7.32-0.62,15.58-5.55,20.99
			c-9.53,10.47-23,5.31-30.92-1.91c-24.25-22.09-26.2-58.08-9.7-76.19c7.93-8.7,18.67-8.38,26.59-1.17
			c9.05,8.24,10.01,20.31,4.33,26.54c-3.96,4.35-8.67,5.23-12.44,1.79c-3.39-3.09-3.55-7.97-1.94-9.73
			c1.07-1.18,2.59-1.08,3.35-0.39c1.01,0.92,1.12,2.31-0.17,3.72c-1.29,1.41-1.28,2.92,0.23,4.29c2.14,1.95,5.31,2.25,7.66-0.34
			c6-6.59,0.79-17.78-4.74-22.82c-7.92-7.21-13.86-5.74-18.57-0.56c-13.18,14.47-9.54,49.85,11.33,68.85
			c10.31,9.39,17.97,9.05,23.22,3.29c5.57-6.12,5.19-15.29,4-24.33c-1.84-4.04-2.88-6.93-3.22-11.11c-0.28-3.48,0.42-5,1.49-6.18
			c0.75-0.82,2.27-0.73,3.28,0.19C402.9,178.95,402.94,179.41,402.64,180z"/>
		<path d="M422.27,209.42c0.67,0.21,1.03,0.21,1.72-0.18c2.64-1.47,4.19-13.05,3.22-35.68c-0.61-0.44-1.25-1.25-1.83-2.29
			c-2.82-5.05-1.81-9.11-0.28-9.97c0.97-0.54,2.83,0.17,3.58,1.51c1.33,2.38-0.76,4.51,0.4,6.59c0.83,1.48,2.69,1.23,5.69,0.72
			c3.3-0.29,4.61-0.24,5.93,2.14c1.82,3.27,0.81,10.26,4.7,17.23c1.33,2.38,3.1,2.94,4.77,2.01c3.33-1.86,5.55-10.3,7.34-19.48
			c0.14-1.05,0.34-1.36,0.75-1.59c0.42-0.23,0.86-0.09,1.11,0.35c0.17,0.3,0.33,0.59,0.16,1.27c-2.36,12.42-5.46,21.55-10.05,24.11
			c-3.61,2.02-7.33,1.56-10.31-3.78c-3.15-5.64-3.13-13.44-4.54-15.96c-0.66-1.19-1.77-1.54-3.44-1.59
			c-0.72,0.01-1.53-0.12-2.19-0.33c0.61,22.63,0.5,34.18-5.19,37.36c-1.81,1.01-3.19,0.81-3.86-0.38c-0.5-0.89-0.33-1.57,0.5-2.03
			C421.02,209.15,421.39,209.14,422.27,209.42z"/>
		<path d="M490.07,165c0.58-1.01,0.85-1.25,1.16-1.32c0.46-0.11,1.01,0.11,1.13,0.61c0.08,0.33,0,0.7-0.34,1.31
			c-2.15,4.71-5.43,7.41-8.68,8.18c-1.86,0.44-3.83,0.39-5.66-0.4c-2.6,8.31-7.61,15.44-12.72,16.66
			c-6.35,1.51-9.54-2.97-10.72-7.94c-3.23-13.56,4.96-30.71,15.48-33.22c4.49-1.07,8.26,1.71,9.51,7c1.06,4.47,0.54,9.83-0.83,15.05
			c1.36,0.9,2.87,1.06,4.42,0.7C485.6,170.95,488,168.64,490.07,165z M472.25,152.64c-6.81,1.62-14.53,17.96-11.97,28.71
			c0.94,3.97,2.89,5.25,5.52,4.63c4.18-0.99,7.68-6.9,9.63-13.82c-1.63-1.36-2.92-3.33-3.51-5.81c-0.94-3.97,0.9-6.51,3.07-7.02
			c0.77-0.18,1.43-0.17,2.01,0.22c-0.08-1.03-0.16-2.06-0.36-2.89C475.85,153.35,474.26,152.16,472.25,152.64z"/>
		<path d="M523.31,166.78c0.83-0.82,1.15-0.97,1.47-0.96c0.48,0.02,0.94,0.38,0.92,0.89c-0.01,0.34-0.19,0.67-0.68,1.16
			c-3.34,3.95-7.23,5.66-10.57,5.53c-1.91-0.08-3.79-0.66-5.34-1.92c-4.75,7.29-11.5,12.81-16.75,12.6
			c-6.52-0.26-8.38-5.44-8.17-10.54c0.56-13.93,13.08-28.23,23.89-27.79c4.61,0.19,7.49,3.88,7.27,9.31
			c-0.18,4.59-2.14,9.61-4.87,14.27c1.06,1.23,2.48,1.8,4.06,1.87C517.39,171.31,520.32,169.73,523.31,166.78z M509.49,150.06
			c-6.99-0.28-18.85,13.36-19.29,24.4c-0.16,4.08,1.36,5.84,4.06,5.95c4.29,0.17,9.26-4.56,13.01-10.7
			c-1.2-1.75-1.91-3.99-1.81-6.54c0.16-4.08,2.63-6.02,4.86-5.93c0.79,0.03,1.42,0.23,1.88,0.76c0.2-1.01,0.4-2.03,0.43-2.88
			C512.77,151.73,511.56,150.15,509.49,150.06z"/>
		<path d="M554.31,164.38c-1.44-0.68-3.67-0.41-10.38,1.89c-7.78,2.73-13.55,6.04-19.18,12.03l-2.6,2.91
			c-1.01,1.03-2.02,1.68-3.31,1.07c-1.15-0.54-2.52-2.87-1.94-4.1c0.36-0.77,1.08-1.93,3.89-4.56l14.5-14.79
			c1.44-1.58,0.79-2.07-0.86-1.16c-3.46,1.76-10.31,4.74-14.2,6.29c-0.94,0.5-1.3,0.52-1.73,0.32c-0.43-0.2-0.58-0.65-0.36-1.11
			c0.14-0.31,0.29-0.62,0.94-0.87c6.05-2.79,13.41-5.35,18.6-9.3c3.03-2.33,6.05-2.04,6.63-1.77c1.01,0.47,1.01,1.97-0.15,4.44
			c-0.43,0.92-1.16,2.09-2.67,3.82l-5.12,6.05c-1.8,1.97-0.79,2.07,0.79,1.31c13.7-6.72,19.96-6.97,23.71-5.21
			c2.45,1.15,3.17,3.36,1.79,6.29c-0.43,0.92-1.95,3.03-4.18,5.55l-3.03,3.46c-0.94,1.25-0.94,2,0.79,0.93
			c10.02-5.63,17.15-7.35,20.18-5.93c2.16,1.01,2.52,4,0.42,8.46c-1.23,2.62-4.04,7.87-5.34,10.64c-2.31,4.92-1.45,6.46,0.28,7.27
			c2.45,1.15,9.8-1.79,15.13-4.17c1.08-0.43,1.44-0.45,1.73-0.32c0.43,0.2,0.72,0.71,0.5,1.17c-0.14,0.31-0.43,0.55-1.08,0.81
			c-9.73,4.64-17.8,6.86-21.98,4.9c-3.17-1.49-4.75-4.86-1.79-11.17c2.17-4.62,4.84-9.56,5.63-11.25c0.79-1.69,0.65-2.51-0.07-2.85
			c-1.01-0.47-2.88-0.23-7.5,1.74c-7.42,3.46-11.46,5.7-14.92,10.09l-2.67,3.07c-0.87,1.1-2.59,1.41-4.18,0.67
			c-1.58-0.74-2.23-1.99-1.44-3.68c0.43-0.92,1.44-2.33,4.83-6.18l6.06-6.92c2.24-2.52,4.11-5.02,4.62-6.1
			C555.67,165.96,555.46,164.92,554.31,164.38z"/>
		<path d="M578.71,213.34c4.55,4.22,16.17,5.01,26.39,3.81c1.16-0.08,1.39-0.1,1.74,0.22c0.23,0.22,0.47,0.9,0.12,1.27
			c-0.23,0.25-0.58,0.16-1.28,0.44c-14.16,1.95-24.97,0.28-30.58-4.91c-5.02-4.65-4.7-9.45-0.08-14.44
			c7.04-7.61,25.26-12.52,32.84-5.5c2.22,2.05,2,5.56-0.07,7.81c-4.85,5.24-17.39,5.44-24.86-0.08c-1.5,0.92-2.78,2.06-3.93,3.31
			C576.13,208.4,576.14,210.97,578.71,213.34z M605.81,197.43c-2.69-2.49-12.32-1.21-19.96,2.83c6.42,5.25,15.93,3.63,19.75-0.48
			C606.51,198.77,606.51,198.07,605.81,197.43z"/>
		<path d="M611.12,243.99c0.3,0.37,0.13,0.71-0.27,1.03c-0.93,0.74-7.19-0.57-9.67-3.68c-2.38-2.99-2.54-6.73,2.25-10.54
			c5.32-4.24,13.34-5.35,15.74-7.26c1.06-0.85,1.23-2,1-3.65c-0.03-0.58-0.16-1.29-0.06-1.99c-4.34,0.01-12.1,0.09-16.28-0.24
			c-1.06,0.03-1.39-0.11-1.69-0.48s-0.23-0.83,0.17-1.15c0.27-0.21,0.53-0.42,1.23-0.37c5.37,0.19,11.34,0.32,17.38-0.02
			c0.33-0.67,0.9-1.33,1.83-2.07c4.52-3.6,8.8-3.15,9.79-1.9c0.69,0.87,0.29,2.82-0.9,3.77c-2.13,1.7-4.48,0.11-6.34,1.6
			c-1.33,1.06-0.87,2.73,0.12,5.6c0.82,3.21,1.08,4.63-1.04,6.33c-2.92,2.33-10.42,2.2-16.93,7.4c-1.99,1.59-2.3,3.66-1.11,5.16
			C608.21,243.87,610.63,243.36,611.12,243.99z"/>
	</g>
	<g>
		<path d="M324.68,690.84l-4.66-16.37l0.75-0.21c1,3.52,4.95,3.72,10.64,2.1l38.98-11.09c5.19-1.48,8.79-3.74,7.77-7.34l0.75-0.21
			l4.66,16.37c3.24,11.38,5.31,21.22-8.32,25.1c-13.05,3.71-17.81-7.94-18.28-9.57c1.51,5.32,3.9,17.83-10.24,21.85
			C332.18,715.6,328.71,705,324.68,690.84z M354.45,684.23l-1.4-4.91l-28.19,8.02l1.02,3.6c2.24,7.86,4.19,15.35,18.57,11.26
			C358.01,698.34,356.17,690.28,354.45,684.23z M381.57,671.2l-27.44,7.81l1.4,4.91c1.44,5.08,4.57,10.02,17.28,6.41
			c12.3-3.5,11.2-10.53,9.78-15.52L381.57,671.2z"/>
		<path d="M356.74,774.77l-7.9-17.72l1.03-0.46c1.87,4.2,6.05,1.4,9.7-2.37l5.7-5.8l-8.98-20.13c-7.29,0.74-18.66,1.71-13.53,12.37
			l-1.03,0.46L334,723.79l1.03-0.46c1.4,2.92,2.58,4.72,23.94,3.3l41.93-3.14l0.38,0.85c-19.12,19.9-39.92,40.73-39.92,40.73
			c-5.21,5.4-4.4,7-3.59,9.24L356.74,774.77z M366.16,747.64l21.83-21.94l-30.56,2.36L366.16,747.64z"/>
		<path d="M393.22,827.24l-3.8-5.23c-6.4-8.81-5.58-7.83,6.83-22.85c5.98-7.3,0.93-14.25-0.37-16.04l-2.35-3.24l-15.41,11.2
			c-4.85,3.53-5.3,6.17-3.2,9.06l-0.91,0.67l-11.21-15.42l0.91-0.67c2.15,2.96,4.51,3.25,10.42-1.05l35.03-25.46
			c4.36-3.17,4.45-5.13,2.24-8.15l0.91-0.67l9.56,13.15c9.96,13.7,13.77,22.5,2.02,31.04c-9.57,6.95-16.28,3.63-22.18-3.45
			c3.09,4.7,6.05,9.8-6.75,24.58c-4.45,5.13-2,9.97-0.84,11.87L393.22,827.24z M420.97,763.21l-1.55-2.13l-24.97,18.15l1.55,2.13
			c5.65,7.78,9.89,13.75,22.41,4.65C431.21,776.7,426.32,770.57,420.97,763.21z"/>
		<path d="M418.01,848.49L404.3,838.4l0.46-0.63c2.95,2.17,6.19-0.08,9.7-4.85l24.03-32.63c3.2-4.34,4.66-8.34,1.65-10.56l0.46-0.63
			l13.71,10.09c9.53,7.01,17.2,13.53,8.79,24.94c-8.04,10.92-18.94,4.63-20.31,3.62c4.45,3.28,13.99,11.71,5.28,23.54
			C439.1,863.48,429.86,857.22,418.01,848.49z M437.49,825.04l-4.11-3.03l-17.38,23.6l3.02,2.22c6.58,4.84,12.71,9.58,21.58-2.47
			C448.95,834.02,442.56,828.78,437.49,825.04z M450.96,798.14l-16.91,22.97l4.11,3.03c4.25,3.13,9.75,5.13,17.59-5.51
			c7.58-10.29,2.41-15.18-1.77-18.26L450.96,798.14z"/>
		<path d="M508.9,862.32l-2.01,17.98l-42.54-4.74l0.13-1.12c3.55,0.4,4.91-2.6,5.57-8.48l4.63-41.48c0.6-5.36,0.06-8.22-3.66-8.63
			l0.13-1.12l41.44,4.62l-1.74,15.56l-1.1-0.12c0.58-14.37-14.04-16.18-20.89-16.94l-4.57-0.51l-3.17,28.43l5.5,0.61
			c2.28,0.25,11.25,1.25,12.65-7.43l1.1,0.12l-2.07,18.58l-1.1-0.12c0.54-8.69-8.58-9.79-10.7-10.03l-5.5-0.61l-3.24,29.04
			l3.89,0.43c7.53,0.84,22.45,2.94,26.15-14.15L508.9,862.32z"/>
		<path d="M583.97,849.78l-5.67,3.11c-9.55,5.24-8.47,4.55-21.81-9.65c-6.49-6.86-14.02-2.72-15.96-1.65l-3.51,1.93l9.17,16.69
			c2.89,5.26,5.45,6.03,8.58,4.31l0.54,0.99l-16.71,9.18l-0.54-0.99c3.21-1.76,3.79-4.06,0.27-10.47l-20.85-37.96
			c-2.6-4.72-4.52-5.05-7.81-3.25l-0.54-0.99l14.25-7.83c14.84-8.15,24.05-10.83,31.04,1.9c5.7,10.37,1.55,16.61-6.21,21.57
			c5.05-2.48,10.49-4.77,23.54,9.79c4.53,5.06,9.64,3.24,11.67,2.32L583.97,849.78z M523.93,814.2l-2.31,1.27l14.86,27.06l2.31-1.27
			c8.43-4.63,14.88-8.08,7.43-21.64C538.61,805.74,531.91,809.82,523.93,814.2z"/>
		<path d="M610.67,821.83c-9.05,10.52-16.9,12.18-16.9,12.18l-12.66-10.89l0.67-0.77c8.65,6.21,18.6,9.71,28.04-1.26
			c8.44-9.81-1.6-20.68-13.56-17.84l-16.27,4.64c-9.43,2.56-20.48,3.27-23.98-8.39c0,0-2.42-7.58,5.29-16.55
			c8.05-9.35,15.81-12.11,15.81-12.11l11.08,9.53l-0.78,0.9c-6.96-4.98-15.98-8.36-25.25,2.42c-5.99,6.97-1.38,20.14,13.46,15.95
			l16.34-4.46c13.24-3.65,21.78,1.22,24.3,9.22C616.25,804.41,619.27,811.83,610.67,821.83z"/>
		<path d="M642.02,750.01c6.26,3.42,8.2,4.76,11.39,1.46l0.99,0.54l-7.21,13.22l-0.99-0.54c0.34-2.43-1.42-3.58-8.21-7.29
			l-14.74-8.04l-11.16,20.47l14.74,8.04c7.79,4.25,8.67,4.63,10.57,2.96l0.99,0.54l-7.25,13.3l-0.99-0.54
			c1.09-4.54-0.02-4.86-7.35-8.86l-32.76-17.86c-6.87-3.75-9.01-4.72-11.66-1.51l-0.99-0.54l7.25-13.3l0.99,0.54
			c-0.45,2.47,1.03,3.37,8.44,7.41l16.72,9.12l11.16-20.47l-16.72-9.12c-7.41-4.04-8.97-4.8-10.8-3.08l-0.99-0.54l7.21-13.22
			l0.99,0.54c-1.23,3.89,0.22,4.87,7.62,8.91L642.02,750.01z"/>
		<path d="M668.42,716.09c-6,17.74-21.79,21.83-38.19,16.29c-16.31-5.51-27.29-18.66-21.29-36.39c6-17.73,22.7-21.52,39.01-16.01
			C664.34,685.52,674.41,698.35,668.42,716.09z M610.01,696.34c-3.24,9.59,0.79,19.13,23.36,26.76c22.65,7.66,30.74,2.22,33.98-7.38
			c3.22-9.51,0.09-18.74-22.56-26.4C622.21,681.69,613.22,686.83,610.01,696.34z"/>
		<path d="M670.02,662.05c10.25,1.96,11.17-0.98,12.18-6.25l1.11,0.21l-4.23,22.06l-1.11-0.21c0.78-4.09-1.16-5.94-9.28-7.5
			l-39.55-7.57c-5.89-1.13-8.25-0.37-9.05,3.81l-1.11-0.21l2.9-15.13c3.18-16.63,7.35-27.27,22.55-24.36
			c15.12,2.9,15.06,14.32,11.87,30.95l-0.29,1.5L670.02,662.05z M655.19,657.65c1.95-10.2,3.3-18.6-12.5-21.63
			c-16.23-3.11-17.83,5.68-19.7,15.46l-0.29,1.5l32.2,6.17L655.19,657.65z"/>
	</g>
</g>
<ellipse class="st2" cx="500" cy="499.11" rx="171.69" ry="278.97"/>
</svg>
