<?xml version="1.0" encoding="utf-8"?>
<!-- Generator: Adobe Illustrator 23.0.3, SVG Export Plug-In . SVG Version: 6.00 Build 0)  -->
<svg version="1.1" id="Layer_1" xmlns="http://www.w3.org/2000/svg" xmlns:xlink="http://www.w3.org/1999/xlink" x="0px" y="0px"
	 viewBox="0 0 1000 1000" style="enable-background:new 0 0 1000 1000;" xml:space="preserve">
<style type="text/css">
	.st0{fill:none;stroke:#FFFFFF;stroke-width:5;stroke-miterlimit:10;}
	.st1{fill:#2E3192;}
	.st2{fill:#ED1C24;}
	.st3{fill:#FFFFFF;}
	.st4{display:none;fill:none;}
</style>
<rect x="468.29" y="340.64" class="st0" width="64.41" height="316.95"/>
<circle class="st0" cx="500.5" cy="294.03" r="32.2"/>
<circle class="st0" cx="500.5" cy="704.21" r="32.2"/>
<polygon class="st1" points="532.7,340.64 532.7,360.1 468.29,411.06 468.29,379.51 517.42,340.64 "/>
<polygon class="st2" points="532.7,392.21 532.7,423.76 468.29,474.72 468.29,443.17 "/>
<polygon class="st1" points="532.7,454.07 532.7,485.62 468.29,536.58 468.29,505.03 "/>
<polygon class="st2" points="532.7,519.33 532.7,550.88 468.29,601.84 468.29,570.29 "/>
<polygon class="st1" points="532.7,584.59 532.7,616.14 480.31,657.59 468.29,657.59 468.29,635.55 "/>
<g>
	<path class="st3" d="M370.97,184.8c-3.21,4.73,0.05,10.41,17.43,32.06c18.62,23.19,33.95,50.07,12.51,72.22
		c-13.27,13.71-31.11,16.02-44.28,4.73c-13.62-11.67-12.9-27.69-4.61-36.26c7.02-7.25,14.14-6.69,18.33-3.1
		c4.34,3.72,5.27,8.13,2.97,10.51c-1.66,1.71-3.55,2.26-5.35,0.72c-1.65-1.41-1.52-3.23-0.55-4.81c0.98-1.57,1.17-2.62-0.48-4.03
		c-3.14-2.69-7.56-2.38-11.51,1.71c-6.12,6.33-6.2,18.56,6.98,29.85c12.72,10.9,25.58,8.66,35.27-1.36
		c11.87-12.26,10.1-26.55-1.43-44.63c-6.9-10.98-14.84-21.16-21.38-31.1c-0.62-0.77-1.9-1.15-1.79,0.15
		c0.28,8.2-0.74,17.45-6.61,23.51c-11.36,11.73-27.39,5.95-36.82-2.14c-28.89-24.76-31.2-65.08-11.55-85.37
		c9.44-9.75,22.24-9.39,31.67-1.31c10.78,9.24,11.92,22.76,5.16,29.74c-4.72,4.88-10.33,5.86-14.82,2.01
		c-4.04-3.46-4.23-8.93-2.31-10.9c1.28-1.32,3.09-1.21,3.99-0.44c1.2,1.03,1.33,2.59-0.2,4.17c-1.53,1.58-1.53,3.27,0.27,4.81
		c2.54,2.18,6.32,2.52,9.13-0.38c7.15-7.38,0.94-19.93-5.64-25.57c-9.43-8.08-16.51-6.43-22.12-0.63
		c-15.69,16.21-11.36,55.86,13.49,77.15c12.27,10.52,21.4,10.14,27.65,3.68c6.63-6.85,6.18-17.13,4.76-27.27
		c-2.19-4.53-3.43-7.77-3.83-12.45c-0.33-3.9,0.5-5.6,1.77-6.92c0.89-0.92,2.71-0.82,3.9,0.21
		C371.29,183.63,371.33,184.15,370.97,184.8z"/>
	<path class="st3" d="M394.35,217.78c0.79,0.24,1.22,0.23,2.05-0.2c3.14-1.65,4.99-14.62,3.84-39.98c-0.73-0.49-1.48-1.4-2.17-2.57
		c-3.36-5.66-2.15-10.21-0.33-11.17c1.16-0.61,3.37,0.19,4.26,1.69c1.58,2.66-0.9,5.06,0.48,7.39c0.99,1.66,3.2,1.37,6.77,0.81
		c3.93-0.32,5.49-0.26,7.06,2.4c2.17,3.66,0.96,11.49,5.6,19.31c1.58,2.66,3.69,3.3,5.68,2.25c3.97-2.09,6.6-11.54,8.75-21.83
		c0.17-1.18,0.4-1.52,0.9-1.78c0.5-0.26,1.02-0.1,1.32,0.4c0.2,0.33,0.39,0.67,0.19,1.42c-2.81,13.91-6.5,24.14-11.96,27.01
		c-4.3,2.26-8.73,1.75-12.28-4.24c-3.75-6.32-3.73-15.06-5.41-17.89c-0.79-1.33-2.11-1.73-4.09-1.78c-0.86,0.01-1.82-0.14-2.61-0.37
		c0.73,25.36,0.6,38.3-6.19,41.87c-2.15,1.13-3.8,0.91-4.59-0.42c-0.59-1-0.39-1.76,0.6-2.28
		C392.87,217.47,393.3,217.46,394.35,217.78z"/>
	<path class="st3" d="M475.1,168c0.69-1.13,1.01-1.4,1.38-1.48c0.55-0.12,1.2,0.12,1.34,0.68c0.09,0.37,0,0.78-0.41,1.46
		c-2.56,5.27-6.47,8.3-10.34,9.17c-2.21,0.5-4.56,0.43-6.74-0.45c-3.1,9.31-9.06,17.3-15.14,18.66c-7.56,1.69-11.36-3.33-12.77-8.89
		c-3.84-15.2,5.9-34.41,18.44-37.22c5.35-1.2,9.83,1.91,11.33,7.84c1.27,5,0.64,11.02-0.99,16.87c1.62,1.01,3.42,1.19,5.26,0.78
		C469.78,174.67,472.63,172.07,475.1,168z M453.88,154.14c-8.11,1.82-17.31,20.13-14.26,32.17c1.12,4.45,3.44,5.89,6.57,5.19
		c4.98-1.11,9.15-7.73,11.47-15.49c-1.94-1.52-3.47-3.73-4.18-6.51c-1.13-4.45,1.08-7.29,3.66-7.87c0.92-0.21,1.71-0.19,2.4,0.25
		c-0.1-1.15-0.19-2.31-0.43-3.23C458.17,154.95,456.27,153.61,453.88,154.14z"/>
	<path class="st3" d="M514.68,170c0.99-0.92,1.37-1.09,1.75-1.08c0.57,0.02,1.12,0.42,1.09,0.99c-0.02,0.38-0.22,0.75-0.81,1.3
		c-3.98,4.42-8.61,6.35-12.59,6.2c-2.27-0.09-4.52-0.74-6.35-2.15c-5.66,8.17-13.7,14.35-19.95,14.11
		c-7.76-0.29-9.98-6.1-9.73-11.81c0.67-15.61,15.57-31.63,28.45-31.14c5.49,0.21,8.92,4.34,8.66,10.43
		c-0.22,5.14-2.55,10.77-5.8,15.98c1.27,1.38,2.95,2.02,4.84,2.09C507.63,175.07,511.12,173.3,514.68,170z M498.22,151.26
		c-8.33-0.32-22.45,14.97-22.98,27.34c-0.2,4.57,1.62,6.54,4.83,6.67c5.11,0.19,11.03-5.11,15.49-11.99
		c-1.43-1.96-2.27-4.47-2.15-7.33c0.2-4.57,3.13-6.74,5.78-6.64c0.95,0.04,1.7,0.25,2.24,0.85c0.24-1.13,0.48-2.27,0.52-3.22
		C502.13,153.13,500.68,151.36,498.22,151.26z"/>
	<path class="st3" d="M551.6,167.31c-1.72-0.76-4.38-0.46-12.36,2.12c-9.27,3.06-16.14,6.76-22.84,13.48l-3.09,3.26
		c-1.2,1.15-2.4,1.88-3.95,1.2c-1.37-0.61-3-3.22-2.31-4.6c0.43-0.86,1.29-2.17,4.64-5.11l17.27-16.58c1.72-1.77,0.95-2.32-1.03-1.3
		c-4.12,1.97-12.28,5.31-16.91,7.05c-1.12,0.56-1.54,0.58-2.06,0.35c-0.51-0.23-0.69-0.72-0.43-1.24c0.17-0.34,0.34-0.69,1.12-0.98
		c7.21-3.13,15.97-6,22.15-10.42c3.61-2.62,7.21-2.29,7.9-1.98c1.2,0.53,1.2,2.21-0.18,4.97c-0.52,1.03-1.38,2.34-3.18,4.28
		l-6.1,6.78c-2.15,2.21-0.95,2.32,0.94,1.47c16.31-7.53,23.78-7.81,28.24-5.84c2.92,1.29,3.77,3.77,2.14,7.05
		c-0.52,1.03-2.32,3.39-4.98,6.22l-3.61,3.88c-1.12,1.4-1.12,2.24,0.94,1.05c11.93-6.31,20.43-8.24,24.03-6.65
		c2.57,1.14,3,4.48,0.5,9.48c-1.46,2.93-4.81,8.82-6.36,11.92c-2.75,5.52-1.72,7.23,0.33,8.14c2.92,1.29,11.67-2,18.02-4.67
		c1.29-0.48,1.72-0.51,2.06-0.35c0.51,0.23,0.86,0.8,0.6,1.32c-0.17,0.34-0.52,0.61-1.29,0.9c-11.59,5.19-21.2,7.68-26.18,5.49
		c-3.77-1.67-5.66-5.44-2.13-12.51c2.58-5.17,5.76-10.71,6.71-12.61c0.95-1.9,0.77-2.81-0.08-3.19c-1.2-0.53-3.43-0.25-8.93,1.95
		c-8.84,3.88-13.65,6.39-17.77,11.3l-3.18,3.44c-1.03,1.23-3.09,1.58-4.98,0.75c-1.89-0.83-2.66-2.23-1.71-4.12
		c0.52-1.03,1.72-2.61,5.76-6.93l7.22-7.76c2.66-2.82,4.9-5.62,5.5-6.83C553.23,169.08,552.97,167.91,551.6,167.31z"/>
	<path class="st3" d="M580.66,222.17c5.42,4.72,19.26,5.62,31.43,4.27c1.38-0.09,1.66-0.11,2.08,0.25c0.28,0.24,0.56,1.01,0.15,1.43
		c-0.27,0.28-0.69,0.18-1.52,0.49c-16.87,2.18-29.74,0.31-36.42-5.5c-5.98-5.21-5.59-10.58-0.09-16.18
		c8.39-8.53,30.08-14.03,39.12-6.16c2.64,2.3,2.39,6.23-0.09,8.75c-5.78,5.87-20.72,6.1-29.61-0.09c-1.79,1.03-3.31,2.31-4.68,3.71
		C577.59,216.64,577.6,219.51,580.66,222.17z M612.93,204.33c-3.2-2.79-14.67-1.36-23.78,3.17c7.64,5.88,18.98,4.07,23.52-0.54
		C613.77,205.84,613.77,205.06,612.93,204.33z"/>
	<path class="st3" d="M619.26,256.51c0.35,0.42,0.16,0.79-0.32,1.15c-1.11,0.83-8.57-0.64-11.52-4.12
		c-2.83-3.35-3.02-7.54,2.68-11.81c6.33-4.75,15.89-6,18.74-8.13c1.27-0.95,1.47-2.24,1.2-4.09c-0.04-0.66-0.19-1.45-0.07-2.23
		c-5.17,0.01-14.42,0.1-19.39-0.27c-1.26,0.04-1.66-0.12-2.01-0.54c-0.35-0.42-0.27-0.93,0.2-1.29c0.32-0.24,0.63-0.47,1.46-0.41
		c6.4,0.22,13.51,0.35,20.7-0.02c0.4-0.75,1.07-1.49,2.18-2.32c5.38-4.04,10.48-3.53,11.66-2.13c0.83,0.98,0.35,3.16-1.08,4.23
		c-2.53,1.9-5.33,0.12-7.55,1.79c-1.58,1.19-1.04,3.06,0.14,6.28c0.98,3.6,1.29,5.19-1.24,7.09c-3.48,2.61-12.41,2.47-20.16,8.29
		c-2.37,1.78-2.74,4.1-1.32,5.78C615.79,256.38,618.67,255.81,619.26,256.51z"/>
</g>
<g>
	<path class="st3" d="M324.68,690.84l-4.66-16.37l0.75-0.21c1,3.52,4.95,3.72,10.64,2.1l38.98-11.09c5.19-1.48,8.79-3.74,7.77-7.34
		l0.75-0.21l4.66,16.37c3.24,11.38,5.31,21.22-8.32,25.1c-13.05,3.71-17.81-7.94-18.28-9.57c1.51,5.32,3.9,17.83-10.24,21.85
		C332.18,715.6,328.71,705,324.68,690.84z M354.45,684.23l-1.4-4.91l-28.19,8.02l1.02,3.6c2.24,7.86,4.19,15.35,18.57,11.26
		C358.01,698.34,356.17,690.28,354.45,684.23z M381.57,671.2l-27.44,7.81l1.4,4.91c1.44,5.08,4.57,10.02,17.28,6.41
		c12.3-3.5,11.2-10.53,9.78-15.52L381.57,671.2z"/>
	<path class="st3" d="M356.74,774.77l-7.9-17.72l1.03-0.46c1.87,4.2,6.05,1.4,9.7-2.37l5.7-5.8l-8.98-20.13
		c-7.29,0.74-18.66,1.71-13.53,12.37l-1.03,0.46L334,723.79l1.03-0.46c1.4,2.92,2.58,4.72,23.94,3.3l41.93-3.14l0.38,0.85
		c-19.12,19.9-39.92,40.73-39.92,40.73c-5.21,5.4-4.4,7-3.59,9.24L356.74,774.77z M366.16,747.64l21.83-21.94l-30.56,2.36
		L366.16,747.64z"/>
	<path class="st3" d="M393.22,827.24l-3.8-5.23c-6.4-8.81-5.58-7.83,6.83-22.85c5.98-7.3,0.93-14.25-0.37-16.04l-2.35-3.24
		l-15.41,11.2c-4.85,3.53-5.3,6.17-3.2,9.06l-0.91,0.67l-11.21-15.42l0.91-0.67c2.15,2.96,4.51,3.25,10.42-1.05l35.03-25.46
		c4.36-3.17,4.45-5.13,2.24-8.15l0.91-0.67l9.56,13.15c9.96,13.7,13.77,22.5,2.02,31.04c-9.57,6.95-16.28,3.63-22.18-3.45
		c3.09,4.7,6.05,9.8-6.75,24.58c-4.45,5.13-2,9.97-0.84,11.87L393.22,827.24z M420.97,763.21l-1.55-2.13l-24.97,18.15l1.55,2.13
		c5.65,7.78,9.89,13.75,22.41,4.65C431.21,776.7,426.32,770.57,420.97,763.21z"/>
	<path class="st3" d="M418.01,848.49L404.3,838.4l0.46-0.63c2.95,2.17,6.19-0.08,9.7-4.85l24.03-32.63
		c3.2-4.34,4.66-8.34,1.65-10.56l0.46-0.63l13.71,10.09c9.53,7.01,17.2,13.53,8.79,24.94c-8.04,10.92-18.94,4.63-20.31,3.62
		c4.45,3.28,13.99,11.71,5.28,23.54C439.1,863.48,429.86,857.22,418.01,848.49z M437.49,825.04l-4.11-3.03l-17.38,23.6l3.02,2.22
		c6.58,4.84,12.71,9.58,21.58-2.47C448.95,834.02,442.56,828.78,437.49,825.04z M450.96,798.14l-16.91,22.97l4.11,3.03
		c4.25,3.13,9.75,5.13,17.59-5.51c7.58-10.29,2.41-15.18-1.77-18.26L450.96,798.14z"/>
	<path class="st3" d="M508.9,862.32l-2.01,17.98l-42.54-4.74l0.13-1.12c3.55,0.4,4.91-2.6,5.57-8.48l4.63-41.48
		c0.6-5.36,0.06-8.22-3.66-8.63l0.13-1.12l41.44,4.62l-1.74,15.56l-1.1-0.12c0.58-14.37-14.04-16.18-20.89-16.94l-4.57-0.51
		l-3.17,28.43l5.5,0.61c2.28,0.25,11.25,1.25,12.65-7.43l1.1,0.12l-2.07,18.58l-1.1-0.12c0.54-8.69-8.58-9.79-10.7-10.03l-5.5-0.61
		l-3.24,29.04l3.89,0.43c7.53,0.84,22.45,2.94,26.15-14.15L508.9,862.32z"/>
	<path class="st3" d="M583.97,849.78l-5.67,3.11c-9.55,5.24-8.47,4.55-21.81-9.65c-6.49-6.86-14.02-2.72-15.96-1.65l-3.51,1.93
		l9.17,16.69c2.89,5.26,5.45,6.03,8.58,4.31l0.54,0.99l-16.71,9.18l-0.54-0.99c3.21-1.76,3.79-4.06,0.27-10.47l-20.85-37.96
		c-2.6-4.72-4.52-5.05-7.81-3.25l-0.54-0.99l14.25-7.83c14.84-8.15,24.05-10.83,31.04,1.9c5.7,10.37,1.55,16.61-6.21,21.57
		c5.05-2.48,10.49-4.77,23.54,9.79c4.53,5.06,9.64,3.24,11.67,2.32L583.97,849.78z M523.93,814.2l-2.31,1.27l14.86,27.06l2.31-1.27
		c8.43-4.63,14.88-8.08,7.43-21.64C538.61,805.74,531.91,809.82,523.93,814.2z"/>
	<path class="st3" d="M610.67,821.83c-9.05,10.52-16.9,12.18-16.9,12.18l-12.66-10.89l0.67-0.77c8.65,6.21,18.6,9.71,28.04-1.26
		c8.44-9.81-1.6-20.68-13.56-17.84l-16.27,4.64c-9.43,2.56-20.48,3.27-23.98-8.39c0,0-2.42-7.58,5.29-16.55
		c8.05-9.35,15.81-12.11,15.81-12.11l11.08,9.53l-0.78,0.9c-6.96-4.98-15.98-8.36-25.25,2.42c-5.99,6.97-1.38,20.14,13.46,15.95
		l16.34-4.46c13.24-3.65,21.78,1.22,24.3,9.22C616.25,804.41,619.27,811.83,610.67,821.83z"/>
	<path class="st3" d="M642.02,750.01c6.26,3.42,8.2,4.76,11.39,1.46l0.99,0.54l-7.21,13.22l-0.99-0.54
		c0.34-2.43-1.42-3.58-8.21-7.29l-14.74-8.04l-11.16,20.47l14.74,8.04c7.79,4.25,8.67,4.63,10.57,2.96l0.99,0.54l-7.25,13.3
		l-0.99-0.54c1.09-4.54-0.02-4.86-7.35-8.86l-32.76-17.86c-6.87-3.75-9.01-4.72-11.66-1.51l-0.99-0.54l7.25-13.3l0.99,0.54
		c-0.45,2.47,1.03,3.37,8.44,7.41l16.72,9.12l11.16-20.47l-16.72-9.12c-7.41-4.04-8.97-4.8-10.8-3.08l-0.99-0.54l7.21-13.22
		l0.99,0.54c-1.23,3.89,0.22,4.87,7.62,8.91L642.02,750.01z"/>
	<path class="st3" d="M668.42,716.09c-6,17.74-21.79,21.83-38.19,16.29c-16.31-5.51-27.29-18.66-21.29-36.39
		c6-17.73,22.7-21.52,39.01-16.01C664.34,685.52,674.41,698.35,668.42,716.09z M610.01,696.34c-3.24,9.59,0.79,19.13,23.36,26.76
		c22.65,7.66,30.74,2.22,33.98-7.38c3.22-9.51,0.09-18.74-22.56-26.4C622.21,681.69,613.22,686.83,610.01,696.34z"/>
	<path class="st3" d="M670.02,662.05c10.25,1.96,11.17-0.98,12.18-6.25l1.11,0.21l-4.23,22.06l-1.11-0.21
		c0.78-4.09-1.16-5.94-9.28-7.5l-39.55-7.57c-5.89-1.13-8.25-0.37-9.05,3.81l-1.11-0.21l2.9-15.13
		c3.18-16.63,7.35-27.27,22.55-24.36c15.12,2.9,15.06,14.32,11.87,30.95l-0.29,1.5L670.02,662.05z M655.19,657.65
		c1.95-10.2,3.3-18.6-12.5-21.63c-16.23-3.11-17.83,5.68-19.7,15.46l-0.29,1.5l32.2,6.17L655.19,657.65z"/>
</g>
<ellipse class="st4" cx="500" cy="499.11" rx="171.69" ry="278.97"/>
</svg>
